<?xml version="1.0" standalone="no"?>
<!DOCTYPE svg PUBLIC "-//W3C//DTD SVG 20010904//EN"
 "http://www.w3.org/TR/2001/REC-SVG-20010904/DTD/svg10.dtd">
<svg version="1.0" xmlns="http://www.w3.org/2000/svg"
 width="1024.000000pt" height="1024.000000pt" viewBox="0 0 1024.000000 1024.000000"
 preserveAspectRatio="xMidYMid meet">

<g transform="translate(0.000000,1024.000000) scale(0.100000,-0.100000)"
fill="#000000" stroke="none">
<path d="M3607 8580 c-93 -24 -172 -87 -217 -176 -21 -42 -25 -63 -25 -142 0
-85 -2 -93 -20 -96 -11 -2 -60 -11 -110 -20 -225 -39 -458 -218 -559 -429 -61
-127 -68 -169 -73 -417 l-5 -225 -29 -30 c-51 -54 -259 -483 -317 -655 -178
-530 -220 -1107 -117 -1616 59 -292 198 -655 345 -904 55 -93 220 -331 284
-410 80 -98 242 -261 336 -336 89 -72 277 -198 410 -276 558 -327 1342 -486
1960 -398 307 44 644 131 860 222 266 112 500 250 700 411 213 171 496 490
654 735 72 113 199 373 249 512 137 381 194 727 184 1110 -8 305 -52 558 -149
852 l-42 127 100 121 c54 67 123 154 152 193 30 38 80 102 113 141 143 169
184 265 177 418 -5 114 -26 164 -109 253 -84 90 -390 344 -489 407 -158 100
-406 84 -530 -34 -44 -41 -137 -149 -177 -205 -35 -49 -31 -53 -109 67 -143
218 -408 379 -625 380 l-46 0 -5 84 c-9 143 -80 256 -195 313 -46 22 -69 27
-132 26 -81 -1 -130 -16 -187 -59 -41 -31 -98 -117 -114 -169 -7 -22 -15 -43
-19 -47 -4 -4 -38 -1 -76 7 -120 25 -358 45 -527 45 -261 0 -534 -40 -868
-126 -96 -25 -196 -49 -221 -53 l-47 -8 -4 83 c-5 103 -46 193 -114 253 -69
61 -184 91 -267 71z m130 -200 c18 -10 42 -39 54 -62 21 -41 23 -58 27 -331 5
-329 1 -357 -66 -402 -49 -33 -89 -32 -144 5 -77 51 -79 64 -72 393 6 312 12
348 67 392 39 30 90 33 134 5z m2379 1 c17 -10 42 -36 55 -57 24 -38 24 -44
27 -306 4 -313 -3 -368 -51 -416 -43 -43 -90 -51 -150 -24 -25 11 -53 32 -62
46 -30 46 -38 156 -29 421 9 241 10 251 33 283 49 69 118 89 177 53z m-381
-563 c0 -177 1 -185 26 -239 37 -79 88 -131 166 -170 60 -30 77 -34 148 -34
87 0 143 20 197 70 15 14 32 25 38 25 6 0 9 4 5 9 -3 5 -1 12 5 16 13 8 13
-11 0 -36 -6 -10 -7 -19 -3 -19 10 0 38 42 35 53 -1 4 2 7 7 7 19 0 39 79 45
170 3 62 2 83 -4 60 -6 -26 -8 -11 -7 58 1 50 -1 92 -5 92 -5 0 -8 22 -8 49
l0 50 33 -4 c17 -2 55 -6 84 -9 100 -9 228 -81 328 -183 60 -61 65 -73 36 -73
-15 0 -28 -18 -50 -63 -60 -125 -277 -366 -381 -422 l-55 -29 -355 -7 c-195
-4 -637 -8 -983 -8 -475 0 -636 -3 -662 -12 -33 -12 -34 -14 -28 -58 3 -25 11
-55 18 -66 30 -49 23 -48 1120 -52 619 -2 1034 -8 1039 -13 6 -6 4 -16 -6 -27
-88 -103 -412 -487 -442 -524 -21 -27 -42 -46 -47 -43 -5 3 -9 48 -9 100 l0
94 -41 45 c-24 26 -57 50 -78 56 -22 7 -111 9 -236 7 -192 -3 -202 -4 -244
-28 -85 -48 -86 -51 -89 -308 -3 -220 -2 -228 20 -272 13 -25 38 -55 57 -67
31 -21 46 -23 162 -23 71 0 129 -3 129 -6 0 -4 -33 -44 -72 -91 -40 -46 -91
-107 -114 -134 -26 -32 -59 -59 -92 -74 -55 -25 -76 -51 -87 -105 -5 -22 -28
-57 -63 -95 -30 -32 -61 -73 -68 -91 -7 -17 -25 -95 -39 -173 -14 -77 -43
-216 -66 -308 -46 -192 -116 -529 -161 -781 l-32 -172 22 -22 22 -22 77 23
c43 12 114 38 158 57 44 20 215 89 380 155 284 114 450 190 681 311 56 29 116
60 134 68 23 11 38 27 48 55 22 58 78 139 227 325 72 91 144 183 161 205 24
34 149 189 176 220 5 5 7 -158 5 -368 -3 -360 -4 -378 -22 -396 -45 -42 -249
-90 -450 -106 -187 -15 -265 -45 -347 -133 -54 -57 -64 -88 -73 -222 -12 -178
-25 -252 -60 -330 -18 -41 -36 -85 -39 -96 -4 -12 -17 -25 -29 -28 -12 -3
-573 -9 -1247 -12 -1289 -7 -1358 -6 -1494 36 -152 47 -320 192 -389 332 -77
159 -72 58 -72 1595 0 754 4 1375 8 1380 9 9 957 12 957 3 0 -4 -58 -64 -130
-134 -115 -115 -132 -128 -157 -123 -15 2 -55 10 -88 17 -81 16 -199 9 -255
-17 -55 -25 -117 -85 -141 -138 -42 -91 -13 -175 105 -303 48 -52 87 -106 107
-147 35 -75 68 -106 164 -152 84 -40 128 -42 210 -8 44 18 79 25 128 25 156 0
242 109 219 280 l-9 64 217 221 c246 250 258 268 246 377 -8 77 -51 148 -110
183 -85 50 -117 52 -721 47 -308 -2 -602 -1 -652 3 l-93 7 0 136 c0 79 6 165
14 203 46 215 231 398 451 444 123 26 112 41 111 -157 -1 -167 0 -175 25 -228
60 -126 164 -200 292 -208 57 -3 84 0 127 17 89 34 177 133 195 221 7 31 9
295 2 345 -2 20 5 20 708 25 391 3 782 6 870 8 l161 2 -1 -182z m2008 -18 c26
-12 91 -59 145 -104 53 -44 129 -106 167 -137 185 -148 225 -202 225 -301 0
-65 -37 -147 -99 -218 l-39 -44 -40 34 c-230 198 -613 512 -699 574 -29 21
-53 44 -53 52 0 8 30 45 68 83 47 48 79 71 107 79 58 16 164 7 218 -18z m-451
-332 c113 -87 498 -414 649 -552 l109 -98 -46 -54 -46 -54 -117 108 c-64 60
-150 135 -191 168 -41 32 -155 127 -254 209 -98 83 -203 169 -232 193 -30 23
-54 45 -54 48 0 3 16 24 35 47 19 22 35 44 35 49 0 17 21 5 112 -64z m-373
-18 c-31 -38 -39 -46 -39 -35 0 6 61 75 67 75 2 0 -11 -18 -28 -40z m-99 -119
c-28 -34 -54 -61 -58 -61 -6 0 28 41 43 52 6 4 7 8 3 8 -4 0 6 13 22 29 30 28
41 49 18 35 -7 -5 -8 -3 -3 5 5 9 10 10 18 2 7 -7 -6 -29 -43 -70z m253 -78
c121 -93 332 -271 447 -379 41 -38 100 -90 130 -114 82 -66 190 -163 190 -171
0 -3 -17 -32 -37 -63 l-37 -56 -46 44 c-25 24 -68 61 -96 83 -28 21 -93 75
-145 120 -176 152 -354 304 -456 390 -57 48 -103 90 -103 93 0 8 80 100 87
100 2 0 32 -21 66 -47z m-329 -15 c-31 -37 -48 -48 -59 -37 -6 6 -2 16 9 27
11 9 16 11 12 5 -12 -21 13 -14 26 7 7 11 17 20 22 20 5 0 1 -10 -10 -22z
m122 -219 c16 -17 46 -42 67 -55 20 -13 37 -30 37 -37 0 -14 -156 -213 -335
-428 -477 -572 -582 -699 -675 -813 -253 -311 -305 -374 -348 -418 l-46 -48
-93 0 -93 0 0 54 c0 53 1 56 83 153 130 154 381 456 499 598 58 72 177 213
263 315 86 102 255 303 376 448 121 144 223 262 227 262 5 0 21 -14 38 -31z
m-2751 -33 c40 -17 60 -53 51 -90 -11 -43 -680 -736 -710 -736 -18 0 -242 207
-293 272 -41 51 -42 87 -5 129 22 25 37 32 68 33 43 1 47 -1 160 -97 38 -32
73 -56 79 -55 6 2 97 95 202 208 192 205 304 308 365 335 42 18 42 18 83 1z
m3031 -209 c16 -18 59 -57 97 -87 37 -29 67 -58 67 -62 0 -16 -60 -99 -150
-208 -48 -58 -151 -186 -230 -285 -79 -99 -183 -225 -230 -280 -47 -55 -120
-143 -160 -195 -41 -52 -108 -135 -150 -185 -42 -49 -103 -126 -135 -170 -126
-172 -320 -406 -340 -410 -11 -2 -66 -6 -123 -8 l-103 -5 6 101 c4 56 13 116
20 132 7 17 71 98 141 180 71 83 170 202 219 264 50 63 131 162 180 221 107
126 188 224 309 375 49 60 113 137 141 170 28 33 103 125 165 205 123 157 229
280 240 280 4 0 20 -15 36 -33z m-4558 -1317 c-3 -727 -4 -777 -21 -805 l-18
-30 5 32 c3 18 1 35 -4 38 -6 4 -10 -23 -10 -70 0 -63 -3 -78 -20 -92 -11 -10
-20 -23 -20 -30 0 -7 -4 -13 -10 -13 -5 0 -10 5 -10 12 0 15 -13 1 -16 -17 -1
-8 2 -12 7 -9 8 5 2 -44 -7 -54 -6 -8 -24 40 -62 168 -137 451 -146 879 -32
1435 34 168 70 279 152 475 59 142 63 138 66 -76 1 -104 1 -538 0 -964z m3270
1055 c8 -8 23 -328 15 -336 -4 -4 -92 -10 -195 -14 l-188 -7 0 187 0 188 182
-7 c100 -4 184 -9 186 -11z m1732 -130 c30 -9 25 -22 -33 -89 -29 -34 -79 -95
-112 -136 -32 -41 -89 -109 -125 -150 -36 -42 -94 -112 -130 -155 -36 -44 -94
-116 -130 -159 -36 -44 -99 -121 -140 -172 -41 -50 -118 -143 -171 -205 -52
-63 -117 -143 -145 -179 -88 -117 -298 -382 -334 -422 l-35 -39 -101 -6 -102
-6 9 47 c9 50 14 57 209 302 69 86 154 194 190 239 115 146 227 285 400 495
150 183 272 335 535 668 l80 101 58 -64 c32 -35 66 -67 77 -70z m170 -184 c0
-5 -7 -11 -15 -15 -15 -5 -20 5 -8 17 9 10 23 9 23 -2z m19 -61 c0 -10 -3 -8
-9 5 -12 27 -12 43 0 25 5 -8 9 -22 9 -30z m90 -364 c24 -140 41 -526 21 -471
-8 20 -8 20 -16 1 -5 -13 -3 -21 4 -24 7 -2 12 -8 12 -13 0 -6 -4 -8 -9 -5
-14 9 -31 -18 -26 -43 2 -12 0 -19 -5 -16 -9 6 -57 -134 -110 -324 -53 -191
-98 -309 -179 -471 -89 -178 -130 -246 -140 -234 -14 17 -62 238 -81 376 -13
91 -27 226 -35 338 -3 47 -8 100 -11 118 -4 26 -2 32 8 26 9 -6 9 -3 -1 10 -9
10 -11 20 -5 24 5 4 19 28 32 55 13 26 28 45 33 42 5 -4 9 1 9 9 0 9 4 16 9
16 4 0 6 11 3 25 -3 20 0 25 17 25 19 0 20 3 10 23 -9 18 -9 20 1 10 11 -10
32 16 109 130 53 79 106 156 119 172 17 22 20 30 10 37 -9 6 -7 8 7 6 12 -2
19 2 18 10 -2 6 1 12 5 12 5 0 24 21 42 48 19 26 41 54 50 62 8 8 28 32 43 53
15 20 32 37 36 37 5 0 14 -29 20 -64z m-393 -394 c-16 -2 -32 0 -37 5 -5 5 7
7 29 4 34 -5 35 -6 8 -9z m-36 -40 c0 -5 -7 -9 -15 -9 -8 0 -12 4 -9 9 3 4 9
8 15 8 5 0 9 -4 9 -8z m8 -32 c-7 -10 -14 -17 -17 -15 -4 4 18 35 25 35 2 0
-1 -9 -8 -20z m-38 -11 c0 -6 -4 -7 -10 -4 -5 3 -10 11 -10 16 0 6 5 7 10 4 6
-3 10 -11 10 -16z m-1985 -244 c22 0 52 3 68 8 l27 7 0 -122 c0 -139 13 -180
65 -210 35 -20 133 -26 217 -14 l56 8 -5 -61 c-7 -74 9 -104 70 -130 l42 -18
-31 -16 c-17 -9 -65 -29 -106 -46 -40 -16 -130 -55 -198 -87 -117 -54 -124
-56 -134 -38 -21 37 -128 143 -188 186 -34 23 -72 52 -86 63 l-24 21 25 94
c14 52 33 133 42 180 9 47 23 109 31 138 l15 53 37 -8 c20 -4 55 -8 77 -8z
m1556 -888 c-12 -43 -37 -113 -57 -155 -64 -133 -247 -292 -391 -339 -36 -12
-95 -16 -245 -17 -108 -1 -194 2 -191 7 2 4 32 26 66 49 174 118 737 657 797
764 l35 61 3 -145 c2 -119 -1 -160 -17 -225z m-502 10 c-70 -67 -148 -147
-174 -177 l-47 -55 6 133 c7 146 14 175 47 192 25 14 127 27 224 29 l70 1
-126 -123z m-1329 19 c-14 -14 -22 -2 -14 18 5 14 9 15 15 4 4 -7 4 -17 -1
-22z m-2560 -61 c7 -9 8 -15 2 -15 -5 0 -12 7 -16 15 -3 8 -4 15 -2 15 2 0 9
-7 16 -15z m24 -41 c3 -8 2 -12 -4 -9 -6 3 -10 10 -10 16 0 14 7 11 14 -7z
m4302 -426 c4 -7 3 -10 -1 -5 -5 4 -20 0 -34 -10 l-26 -16 19 21 c22 25 32 27
42 10z m104 -32 c0 -3 -4 -8 -10 -11 -5 -3 -10 -1 -10 4 0 6 5 11 10 11 6 0
10 -2 10 -4z m55 -18 c5 4 5 2 1 -5 -8 -14 -36 -6 -36 9 0 7 5 6 13 -1 8 -6
18 -7 22 -3z m-3955 -93 c0 -2 -16 -4 -35 -4 -68 -3 -67 -2 -46 -25 10 -12 16
-27 14 -33 -3 -7 0 -13 5 -13 6 0 26 -16 46 -36 59 -59 109 -95 123 -90 7 3
17 -3 22 -13 30 -56 -34 -14 -177 117 -100 90 -142 144 -135 172 5 18 12 16
94 -26 49 -25 89 -47 89 -49z m3933 50 c-7 -21 -12 -19 -10 4 0 11 5 18 9 15
4 -3 5 -11 1 -19z m-49 -10 c3 -8 1 -15 -4 -15 -26 0 -6 -20 25 -26 24 -4 35
-12 35 -23 0 -22 -19 -41 -42 -41 -10 0 -18 -7 -18 -15 0 -8 -6 -15 -14 -15
-26 0 -25 -15 0 -16 16 -1 24 4 24 14 0 8 3 12 7 9 3 -4 12 -2 19 3 8 8 16 6
27 -5 14 -14 17 -14 25 1 6 10 12 13 16 6 8 -13 -83 -94 -97 -85 -5 3 -7 1 -4
-4 11 -17 -138 -140 -303 -250 -100 -67 -302 -175 -251 -135 13 11 20 21 15
24 -5 3 -4 4 2 2 15 -3 54 50 54 75 0 14 -5 18 -20 14 -14 -4 -20 0 -20 11 0
9 -4 16 -10 16 -5 0 -6 -8 -3 -17 5 -12 2 -15 -9 -10 -9 3 -25 -1 -37 -9 -11
-8 -21 -12 -21 -9 0 3 -19 -12 -41 -34 -23 -22 -67 -53 -98 -70 -67 -35 -105
-66 -97 -79 7 -11 66 -3 66 9 0 5 9 4 20 -3 17 -11 15 -14 -28 -30 -188 -73
-355 -121 -527 -153 -300 -55 -562 -74 -778 -57 -511 42 -918 161 -1304 382
-114 66 -310 199 -338 230 -16 18 -16 19 9 26 33 8 60 -2 53 -19 -3 -8 1 -14
9 -14 7 0 10 5 7 11 -4 6 2 3 13 -6 16 -14 48 -17 232 -18 116 0 212 3 212 8
0 5 -13 7 -30 4 -23 -3 -30 0 -30 12 0 22 -17 20 -23 -1 -4 -14 -5 -12 -6 5
-1 16 5 22 19 22 11 0 20 -7 20 -15 0 -17 35 -21 45 -5 3 6 -1 10 -10 10 -22
0 -14 20 16 39 21 14 22 14 12 0 -17 -21 -12 -60 7 -56 8 1 20 -4 26 -12 10
-12 45 -16 178 -19 l166 -4 1 28 c2 27 2 27 6 4 4 -25 5 -25 89 -22 48 2 82 7
79 13 -4 5 1 9 10 9 9 0 14 -4 11 -9 -3 -5 0 -11 8 -14 8 -3 501 -5 1097 -4
1045 2 1086 3 1129 21 64 28 122 69 183 130 69 70 77 82 77 103 0 15 -2 16
-10 3 -5 -8 -10 -10 -10 -4 0 19 13 24 28 11 13 -10 15 -9 9 5 -3 10 -1 20 5
24 6 4 8 3 4 -4 -3 -6 -2 -14 4 -17 6 -4 10 -3 9 2 -1 4 -1 21 0 37 1 20 5 27
16 23 8 -4 17 -2 20 3 9 15 32 12 39 -5z m236 11 c0 -2 -8 -10 -17 -17 -16
-13 -17 -12 -4 4 13 16 21 21 21 13z m-148 -28 c-15 -15 -72 -20 -72 -7 0 6
14 8 30 5 17 -2 30 0 30 5 0 5 5 9 12 9 9 0 9 -3 0 -12z m8 -78 c-8 -5 -18 -6
-24 -3 -5 4 -7 -1 -3 -10 4 -11 2 -14 -9 -10 -16 6 -19 22 -4 24 6 1 14 2 19
3 5 0 13 4 17 9 4 4 10 5 13 1 3 -3 -1 -9 -9 -14z m44 -1 c-3 -5 -10 -7 -15
-3 -5 3 -7 10 -3 15 3 5 10 7 15 3 5 -3 7 -10 3 -15z m-3281 4 c-13 -2 -33 -2
-45 0 -13 2 -3 4 22 4 25 0 35 -2 23 -4z m90 0 c-7 -2 -19 -2 -25 0 -7 3 -2 5
12 5 14 0 19 -2 13 -5z m155 -30 c-10 -2 -26 -2 -35 0 -10 3 -2 5 17 5 19 0
27 -2 18 -5z m351 -87 c9 -11 9 -16 -1 -22 -7 -4 -10 -4 -6 1 4 4 3 14 -3 22
-6 7 -9 13 -6 13 2 0 10 -6 16 -14z m-235 -26 c-6 -6 -10 -3 -10 10 0 13 4 16
10 10 7 -7 7 -13 0 -20z m-264 0 c0 -5 -2 -10 -4 -10 -3 0 -8 5 -11 10 -3 6
-1 10 4 10 6 0 11 -4 11 -10z m56 -5 c9 -8 11 -15 6 -15 -5 0 -15 7 -22 15 -7
8 -9 15 -6 15 4 0 14 -7 22 -15z m425 -2 c12 -14 12 -16 0 -8 -11 6 -13 4 -7
-10 7 -18 6 -18 -13 -1 -10 9 -21 14 -24 9 -6 -10 18 -45 26 -37 3 3 15 3 28
-1 16 -6 18 -9 8 -16 -8 -4 -19 -3 -26 3 -9 7 -13 7 -13 -1 0 -6 -8 -3 -18 7
-11 9 -17 20 -15 24 2 3 -3 8 -9 10 -10 4 26 31 48 38 1 0 8 -8 15 -17z m-148
-17 c7 4 1 -6 -13 -22 -14 -16 -25 -30 -25 -31 -1 -1 -7 8 -14 20 -13 20 -13
21 1 9 14 -11 17 -9 24 20 5 22 9 27 12 15 2 -10 9 -14 15 -11z m-88 4 c3 -5
1 -10 -4 -10 -6 0 -11 5 -11 10 0 6 2 10 4 10 3 0 8 -4 11 -10z m317 -19 c7
10 9 11 6 1 -6 -21 -23 -19 -24 3 -1 18 -1 18 3 1 4 -16 7 -17 15 -5z m-830
-13 c-7 -7 -12 -8 -12 -2 0 6 3 14 7 17 3 4 9 5 12 2 2 -3 -1 -11 -7 -17z
m-115 -24 c-3 -3 -12 -4 -19 -1 -8 3 -5 6 6 6 11 1 17 -2 13 -5z m60 0 c-3 -3
-12 -4 -19 -1 -8 3 -5 6 6 6 11 1 17 -2 13 -5z m276 -1 c-7 -2 -19 -2 -25 0
-7 3 -2 5 12 5 14 0 19 -2 13 -5z m607 -3 c0 -5 -5 -10 -11 -10 -5 0 -7 5 -4
10 3 6 8 10 11 10 2 0 4 -4 4 -10z m1899 -304 c-11 -11 -139 -64 -139 -58 0 4
28 19 63 33 60 26 85 34 76 25z"/>
<path d="M6272 7417 c-7 -8 -30 -19 -52 -26 -22 -6 -40 -16 -40 -21 0 -12 77
16 97 35 8 9 13 18 11 21 -3 2 -10 -2 -16 -9z"/>
<path d="M4337 6627 c-37 -35 -69 -76 -73 -92 -4 -16 -4 -114 -1 -218 5 -171
8 -194 29 -236 17 -34 34 -52 68 -69 43 -22 53 -23 266 -20 l221 3 37 29 c71
54 77 85 74 339 l-3 224 -28 36 c-49 64 -61 67 -306 67 l-219 0 -65 -63z m456
-164 c4 -38 7 -124 7 -192 l0 -124 -37 7 c-21 3 -104 6 -185 6 l-148 0 0 185
0 185 179 0 178 0 6 -67z"/>
<path d="M3307 5705 c-44 -15 -83 -48 -102 -86 -10 -19 -14 -87 -16 -255 -3
-226 -3 -230 21 -272 45 -79 55 -82 321 -82 266 0 274 2 326 81 l28 42 3 211
c2 116 0 226 -3 244 -7 40 -59 101 -102 118 -46 20 -422 19 -476 -1z m413
-167 c0 -13 2 -100 4 -195 l4 -173 -191 0 -192 0 1 193 c1 105 2 193 3 195 0
1 84 2 186 2 185 0 185 0 185 -22z"/>
<path d="M4364 5694 c-17 -8 -46 -31 -65 -50 l-34 -35 -3 -212 c-4 -256 0
-287 40 -333 55 -62 64 -64 305 -64 251 0 281 8 324 76 23 38 24 46 27 279 4
239 4 240 -20 275 -13 19 -39 45 -57 57 -33 22 -41 23 -260 23 -183 0 -232 -3
-257 -16z m425 -149 c3 -4 7 -92 9 -196 l3 -189 -133 0 c-73 0 -157 3 -185 6
l-53 7 0 195 0 195 176 -6 c97 -3 179 -9 183 -12z"/>
<path d="M3295 4705 c-22 -8 -55 -30 -72 -49 l-33 -36 0 -240 c0 -264 3 -282
59 -335 l32 -30 222 -3 c122 -2 236 -1 253 3 33 6 87 53 109 96 11 21 15 82
15 269 l1 242 -26 34 c-47 61 -60 64 -302 64 -161 -1 -228 -5 -258 -15z m425
-289 c0 -79 3 -164 6 -190 l7 -46 -60 0 c-33 0 -121 3 -196 7 l-137 6 0 184 0
183 190 0 190 0 0 -144z"/>
<path d="M4378 4703 c-46 -13 -91 -52 -108 -93 -7 -18 -10 -102 -8 -257 l3
-230 28 -42 c53 -79 63 -82 299 -79 240 3 244 5 254 94 10 84 7 86 -220 78
l-193 -7 -5 189 c-3 104 -5 190 -4 191 1 1 84 6 184 9 165 6 184 5 201 -10 11
-10 34 -21 53 -26 18 -4 40 -11 49 -14 17 -8 29 27 29 85 0 30 -46 90 -84 111
-29 16 -424 17 -478 1z"/>
<path d="M6960 3529 c0 -11 5 -17 10 -14 6 3 10 13 10 21 0 8 -4 14 -10 14 -5
0 -10 -9 -10 -21z"/>
<path d="M6921 3468 c-14 -23 -14 -23 8 -4 22 20 25 26 13 26 -4 0 -13 -10
-21 -22z"/>
<path d="M6948 3443 c7 -3 16 -2 19 1 4 3 -2 6 -13 5 -11 0 -14 -3 -6 -6z"/>
<path d="M6885 3410 c-3 -6 1 -7 9 -4 18 7 21 14 7 14 -6 0 -13 -4 -16 -10z"/>
<path d="M7016 3403 c-6 -14 -5 -15 5 -6 7 7 10 15 7 18 -3 3 -9 -2 -12 -12z"/>
<path d="M6950 3386 c0 -9 5 -16 10 -16 6 0 10 4 10 9 0 6 -4 13 -10 16 -5 3
-10 -1 -10 -9z"/>
<path d="M6698 3251 c10 -6 9 -10 -7 -14 -14 -3 -19 -10 -15 -21 5 -13 9 -12
24 7 19 23 18 37 -3 37 -8 0 -8 -3 1 -9z"/>
<path d="M3828 3243 c7 -3 16 -2 19 1 4 3 -2 6 -13 5 -11 0 -14 -3 -6 -6z"/>
<path d="M6647 3229 c7 -9 10 -19 6 -22 -3 -4 -1 -7 5 -7 17 0 15 16 -5 31
-16 12 -17 12 -6 -2z"/>
<path d="M6530 3110 c0 -5 7 -10 15 -10 8 0 15 5 15 10 0 6 -7 10 -15 10 -8 0
-15 -4 -15 -10z"/>
<path d="M7508 3260 c-25 -15 -41 -77 -41 -156 l1 -71 -42 4 c-62 7 -158 -13
-178 -38 -26 -31 -22 -72 9 -110 l27 -32 93 6 c51 4 93 3 94 -1 8 -117 19
-165 39 -187 28 -30 59 -32 91 -6 21 17 25 30 29 103 5 76 7 83 25 80 70 -12
135 -6 162 14 62 46 65 103 7 141 -21 14 -45 17 -115 15 l-88 -3 11 32 c16 47
5 167 -19 190 -23 23 -81 34 -105 19z"/>
</g>
</svg>
